<svg width="360" height="358" viewBox="0 0 360 358" fill="none" xmlns="http://www.w3.org/2000/svg">
<ellipse cx="183.5" cy="179" rx="155.5" ry="161" fill="white"/>
<path fill-rule="evenodd" clip-rule="evenodd" d="M180 358C279.411 358 360 277.859 360 179C360 80.141 279.411 0 180 0C80.5887 0 0 80.141 0 179C0 277.859 80.5887 358 180 358ZM211.5 92C223.374 92 233 82.3741 233 70.5C233 58.6259 223.374 49 211.5 49C199.626 49 190 58.6259 190 70.5C190 82.3741 199.626 92 211.5 92ZM154 76.5C154 88.3741 144.374 98 132.5 98C120.626 98 111 88.3741 111 76.5C111 64.6259 120.626 55 132.5 55C144.374 55 154 64.6259 154 76.5ZM279.221 64.4845C275.705 61.308 270.28 61.5829 267.104 65.0987L233.06 102.778C232.577 103.312 232.173 103.891 231.849 104.5H182.5V139L255 213.5C244.043 218.582 214.565 228.505 181.012 229.43C180.315 229.365 179.611 229.38 178.915 229.476C177.946 229.492 176.975 229.5 176 229.5C140.4 229.5 107.833 218.833 96 213.5L168.5 142.5L131.5 104.5H88C85.6667 105.167 81 107.8 81 113C81 118.2 85.6667 121.5 88 122.5H140L158.5 141.5L84.5 214.5C102.5 224.5 121.667 229.667 129 231C128.146 231 127.22 231.146 129.206 231.686C128.985 231.92 128.774 232.17 128.576 232.433L96.9148 274.617C94.0705 278.407 94.8368 283.784 98.6264 286.629C102.416 289.473 107.794 288.707 110.638 284.917L142.3 242.734C142.39 242.613 142.476 242.491 142.56 242.368L149.001 234.27C151.846 234.558 154.49 234.813 156.5 235L156.869 235.614L110.657 300.695C107.914 304.558 108.822 309.914 112.685 312.657C116.549 315.401 121.904 314.492 124.648 310.629L172.031 243.899C172.181 243.687 172.321 243.47 172.449 243.25C172.723 243.69 173.037 244.112 173.394 244.511L211.88 287.623C215.218 291.363 220.955 291.688 224.695 288.35C228.434 285.011 228.759 279.274 225.421 275.534L188.341 233.997C218.566 233.786 254.299 222.28 268.5 216.5L219 167V122.5L239.93 122.002L239.968 122.036L239.999 122L240 122L240 121.999L279.5 77L279.472 77.0042L279.835 76.602C283.012 73.0863 282.737 67.6611 279.221 64.4845ZM172.261 234H172.058C172.096 234.054 172.134 234.109 172.171 234.164C172.2 234.109 172.23 234.054 172.261 234ZM299.622 80.853C296.158 77.6205 290.729 77.8084 287.497 81.2728L252.853 118.401C249.62 121.865 249.808 127.294 253.273 130.527C256.737 133.759 262.166 133.571 265.399 130.107L300.042 92.9788C303.275 89.5145 303.087 84.0856 299.622 80.853Z" fill="#CE000A"/>
</svg>
